<svg xmlns="http://www.w3.org/2000/svg" viewBox="0 0 120 120" width="120" height="120">
  <defs>
    <filter id="shadow-arroz" x="-20%" y="-20%" width="140%" height="140%">
      <feDropShadow dx="0" dy="5" stdDeviation="4" flood-color="#000" flood-opacity="0.18"/>
    </filter>
    <radialGradient id="base-glow-arroz" cx="50%" cy="80%" r="50%">
      <stop offset="0%" stop-color="#000" stop-opacity="0.12"/>
      <stop offset="100%" stop-color="#000" stop-opacity="0"/>
    </radialGradient>
    
    <linearGradient id="bowlGrad" x1="0%" y1="0%" x2="100%" y2="100%">
      <stop offset="0%" stop-color="#38bdf8"/>
      <stop offset="100%" stop-color="#0284c7"/>
    </linearGradient>
  
  </defs>
  <!-- Ambient ground shadow -->
  <ellipse cx="60" cy="100" rx="38" ry="8" fill="url(#base-glow-arroz)"/>
  <g filter="url(#shadow-arroz)">
    
    <ellipse cx="60" cy="55" rx="34" ry="18" fill="#ffffff"/>
    <path d="M 24 55 C 24 85, 40 94, 60 94 C 80 94, 96 85, 96 55 Z" fill="url(#bowlGrad)" stroke="#0369a1" stroke-width="1.5"/>
    <ellipse cx="60" cy="55" rx="36" ry="8" fill="none" stroke="#0284c7" stroke-width="2"/>
    <ellipse cx="50" cy="46" rx="4" ry="2" fill="#f1f5f9" stroke="#cbd5e1" stroke-width="0.5" transform="rotate(20 50 46)"/>
    <ellipse cx="62" cy="44" rx="4" ry="2" fill="#f1f5f9" stroke="#cbd5e1" stroke-width="0.5" transform="rotate(-15 62 44)"/>
    <ellipse cx="72" cy="48" rx="4" ry="2" fill="#f1f5f9" stroke="#cbd5e1" stroke-width="0.5" transform="rotate(35 72 48)"/>
  
  </g>
</svg>